<svg preserveAspectRatio="none" width="100%" height="100%" overflow="visible" style="display: block;" viewBox="0 0 36 34" fill="none" xmlns="http://www.w3.org/2000/svg">
<path id="&#209;&#129;&#209;&#139;&#209;&#130;&#208;&#189;&#208;&#190;&#208;&#181;" d="M18.0001 1.00008C17.4023 1.42769 16.9179 1.99391 16.5888 2.64982C16.2597 3.30573 16.0958 4.03161 16.1112 4.76478C16.0958 5.49795 16.2597 6.22384 16.5888 6.87975C16.9179 7.53566 17.4023 8.10187 18.0001 8.52949M25.5556 1.00008C24.9578 1.42769 24.4734 1.99391 24.1443 2.64982C23.8152 3.30573 23.6513 4.03161 23.6667 4.76478C23.6513 5.49795 23.8152 6.22384 24.1443 6.87975C24.4734 7.53566 24.9578 8.10187 25.5556 8.52949M10.4445 1.00008C9.8467 1.42769 9.36232 1.99391 9.03323 2.64982C8.70414 3.30573 8.54022 4.03161 8.55563 4.76478C8.54022 5.49795 8.70414 6.22384 9.03323 6.87975C9.36232 7.53566 9.8467 8.10187 10.4445 8.52949M2.88889 14.1765H33.1111C33.6121 14.1765 34.0925 14.3749 34.4468 14.7279C34.801 15.0809 35 15.5597 35 16.0589V17.0001C35 19.8236 30.2457 27.4904 27.4444 29.2354V31.1177C27.4444 31.617 27.2454 32.0957 26.8912 32.4488C26.537 32.8018 26.0565 33.0001 25.5556 33.0001H10.4444C9.94348 33.0001 9.46303 32.8018 9.1088 32.4488C8.75456 32.0957 8.55556 31.617 8.55556 31.1177V29.2354C5.369 27.2514 1 19.8236 1 17.0001V16.0589C1 15.5597 1.19901 15.0809 1.55324 14.7279C1.90748 14.3749 2.38792 14.1765 2.88889 14.1765Z" stroke="var(--stroke-0, black)" stroke-width="2" stroke-linecap="round" stroke-linejoin="round"/>
</svg>
